<svg xmlns="http://www.w3.org/2000/svg" width="519" height="156" viewBox="0 0 519 156">
    <g>
       <!-- Background (removed) -->
<!-- <path d="M 0.00 0.00 L 519.00 0.00 L 519.00 156.00 L 0.00 156.00 Z" fill="rgb(29,29,29)"/> -->

<!-- Logo shapes -->
        <path d="M 330.38 112.61 C332.35,113.50 334.79,113.77 337.00,113.36 C338.92,112.99 343.31,112.79 346.75,112.90 L 353.00 113.11 L 353.00 101.20 C353.00,90.49 352.77,88.96 350.74,85.94 C349.50,84.09 347.36,82.27 345.99,81.89 C341.28,80.58 334.49,81.05 330.25,82.97 C326.76,84.56 326.00,84.64 326.00,83.45 C326.00,82.38 324.71,82.00 321.08,82.00 L 316.17 82.00 L 312.95 91.00 C311.18,95.95 309.38,100.00 308.95,100.00 C308.52,100.00 306.74,96.01 305.00,91.14 L 301.83 82.28 L 294.31 81.64 C290.18,81.29 286.31,81.31 285.71,81.68 C285.12,82.04 281.57,82.26 277.82,82.16 L 271.00 81.98 L 271.00 113.00 L 280.00 113.00 L 280.01 104.25 C280.03,92.66 281.10,90.59 287.27,90.20 C289.87,90.03 292.00,89.47 292.00,88.95 C292.00,88.43 292.38,88.00 292.85,88.00 C293.31,88.00 295.63,93.18 298.00,99.51 C300.37,105.83 302.88,111.49 303.58,112.06 C304.27,112.64 307.00,112.98 309.63,112.81 L 314.42 112.50 L 319.46 99.76 C322.23,92.75 324.73,87.01 325.01,87.01 C325.29,87.00 325.97,88.01 326.52,89.25 C327.52,91.51 328.15,91.62 333.25,90.41 C337.42,89.43 336.68,91.82 332.25,93.65 C326.45,96.04 324.00,98.80 324.00,102.95 C324.00,107.36 326.24,110.74 330.38,112.61 ZM 140.77 101.88 L 141.05 120.00 L 157.00 120.00 L 157.00 86.00 C157.00,52.23 156.99,52.00 154.92,52.00 C153.00,52.00 142.27,60.47 128.97,72.50 C116.42,83.85 107.69,91.53 105.90,92.78 C103.62,94.38 103.43,96.57 105.51,97.37 C106.34,97.68 106.90,98.44 106.76,99.05 C106.62,99.65 108.19,100.84 110.27,101.69 C113.97,103.20 114.12,103.17 119.59,99.86 C122.65,98.01 128.61,93.63 132.83,90.13 L 140.50 83.75 ZM 184.00 70.00 L 184.00 113.00 L 193.00 113.00 L 193.00 100.92 C193.00,93.03 193.36,88.95 194.03,89.18 C194.60,89.37 197.24,93.12 199.88,97.51 C206.44,108.40 207.43,108.31 215.06,96.15 L 220.94 86.80 L 221.22 99.65 L 221.50 112.50 L 226.25 112.80 L 231.00 113.11 L 231.00 70.00 L 220.16 70.00 L 213.95 80.50 C210.54,86.28 207.61,91.00 207.43,91.00 C207.25,91.00 204.27,86.28 200.81,80.50 L 194.52 70.00 ZM 88.00 106.52 L 88.00 120.03 L 137.50 119.50 L 137.78 107.40 C138.00,97.73 137.76,95.05 136.59,94.08 C135.44,93.12 134.63,93.12 132.81,94.08 C128.34,96.43 117.00,107.21 117.00,109.10 C117.00,110.15 116.66,110.99 116.25,110.97 C115.84,110.96 110.10,106.91 103.50,101.98 C96.90,97.05 90.71,93.01 89.75,93.01 C88.17,93.00 88.00,94.31 88.00,106.52 ZM 245.50 112.79 C260.45,118.02 274.45,102.48 266.91,89.05 C264.31,84.42 260.46,82.08 254.27,81.35 C242.13,79.91 233.00,86.92 233.00,97.67 C233.00,104.06 238.07,110.20 245.50,112.79 ZM 399.00 112.41 C405.42,115.19 413.23,113.83 417.34,109.21 C421.37,104.69 417.05,101.37 411.12,104.44 C407.02,106.56 403.78,106.40 400.63,103.93 C395.48,99.87 396.97,99.00 409.00,99.00 L 420.00 99.00 L 420.00 95.45 C420.00,88.45 415.29,82.61 408.75,81.47 C402.16,80.33 396.88,81.84 392.90,86.01 C384.71,94.57 387.71,107.51 399.00,112.41 ZM 94.25 87.78 C97.69,90.62 101.13,92.95 101.91,92.97 C103.78,93.01 117.94,77.95 117.97,75.87 C118.00,74.27 113.81,70.80 99.14,60.28 L 99.11 60.25 C93.84,56.47 91.07,54.49 89.62,55.20 C88.00,55.98 88.00,60.09 88.00,68.77 L 88.00 82.63 ZM 356.71 112.38 C357.11,112.77 359.24,112.96 361.46,112.80 L 365.50 112.50 L 366.00 102.77 C366.60,91.08 367.96,88.71 373.79,89.19 L 377.50 89.50 L 378.06 113.11 L 386.50 112.50 L 386.50 99.28 C386.50,86.84 386.36,85.91 384.22,83.78 C382.32,81.88 380.87,81.50 375.60,81.52 C371.76,81.53 368.62,82.07 367.63,82.89 C366.56,83.78 366.00,83.86 366.00,83.12 C366.00,82.44 364.03,82.00 361.00,82.00 L 356.00 82.00 L 356.00 96.83 C356.00,104.99 356.32,111.99 356.71,112.38 ZM 345.00 96.11 C345.00,97.52 341.63,97.07 340.21,95.46 C339.15,94.26 339.18,94.00 340.38,94.00 C342.58,94.00 345.00,95.10 345.00,96.11 Z"
            fill="rgba(0, 0, 0, 1)"/>

        <path d="M 155.00 85.50 L 155.00 118.00 L 144.00 118.00 L 143.90 102.25 C143.84,93.59 143.88,85.04 143.98,83.25 C144.07,81.46 143.69,80.00 143.13,80.00 C142.56,80.00 139.32,82.32 135.92,85.14 C126.58,92.92 115.90,100.00 113.57,99.97 C111.00,99.93 104.95,94.85 106.76,94.25 C107.45,94.02 109.76,92.18 111.89,90.16 C120.95,81.59 131.91,71.75 134.10,70.22 C135.39,69.31 138.94,66.20 141.98,63.31 C145.01,60.41 148.05,58.03 148.73,58.02 C149.40,58.01 150.69,56.88 151.59,55.50 C152.49,54.12 153.63,53.00 154.12,53.00 C154.61,53.00 155.00,67.32 155.00,85.50 ZM 191.00 95.35 L 191.00 111.00 L 185.00 111.00 L 185.00 91.39 C185.00,73.92 185.17,71.85 186.58,72.39 C187.45,72.73 189.40,73.00 190.91,73.00 C193.34,73.00 194.38,74.24 200.00,83.75 C203.49,89.66 206.48,94.68 206.65,94.89 C207.15,95.54 210.93,90.60 210.97,89.25 C210.99,88.56 211.48,88.00 212.06,88.00 C212.64,88.00 212.88,87.61 212.58,87.13 C212.29,86.66 212.93,85.47 214.00,84.50 C215.07,83.53 215.71,82.34 215.42,81.87 C215.12,81.39 215.36,81.00 215.94,81.00 C216.52,81.00 216.89,80.62 216.75,80.16 C216.61,79.69 217.58,77.89 218.90,76.16 C220.86,73.58 222.00,73.00 225.15,73.00 L 229.00 73.00 L 229.00 111.00 L 226.25 111.00 L 223.50 111.00 L 223.80 95.40 C224.01,84.33 223.78,79.91 222.99,80.17 C221.98,80.51 218.75,85.49 211.28,98.24 C209.60,101.09 207.78,102.98 206.69,102.99 C205.70,102.99 205.16,102.55 205.50,101.99 C205.85,101.44 205.42,100.72 204.56,100.39 C203.70,100.06 203.00,99.16 203.00,98.39 C203.00,97.63 202.58,97.00 202.08,97.00 C201.57,97.00 200.64,95.43 200.00,93.50 C199.36,91.57 198.44,90.00 197.94,90.00 C197.44,90.00 196.76,88.88 196.41,87.50 C196.07,86.12 195.36,85.00 194.83,85.00 C194.31,85.00 194.12,84.61 194.42,84.13 C194.71,83.66 194.06,82.46 192.98,81.48 C191.02,79.70 191.00,79.82 191.00,95.35 ZM 262.07 107.16 C258.05,110.72 257.30,111.00 251.62,111.00 C247.37,110.99 244.58,110.42 242.50,109.11 C238.99,106.92 235.91,103.42 236.75,102.58 C237.07,102.26 236.89,102.00 236.35,102.00 C235.78,102.00 235.53,99.96 235.74,97.25 C235.96,94.64 236.17,91.94 236.23,91.25 C236.29,90.56 236.68,90.00 237.10,90.00 C237.52,90.00 238.14,89.14 238.47,88.08 C238.81,87.03 240.53,85.62 242.29,84.95 C245.87,83.59 256.93,83.08 257.65,84.25 C257.91,84.66 258.88,85.00 259.81,85.01 C260.74,85.01 262.62,86.67 264.00,88.69 C265.94,91.54 266.49,93.58 266.44,97.84 C266.39,103.02 266.15,103.54 262.07,107.16 ZM 134.78 106.75 L 134.50 117.50 L 91.00 118.04 L 91.00 107.69 C91.00,101.99 91.29,97.05 91.64,96.70 C92.40,95.93 97.71,99.51 100.53,102.70 C101.65,103.97 102.93,105.00 103.39,105.00 C103.84,105.00 105.85,106.29 107.86,107.86 C112.45,111.48 117.56,114.11 118.37,113.29 C118.72,112.95 119.00,111.69 119.00,110.49 C119.00,108.08 122.89,103.00 124.75,103.00 C125.40,103.00 126.41,102.10 126.99,101.01 C127.92,99.28 132.82,96.00 134.48,96.00 C134.81,96.00 134.94,100.84 134.78,106.75 ZM 108.79 84.13 C101.22,91.35 101.09,91.43 99.50,90.00 C98.95,89.50 96.84,87.61 94.81,85.80 L 91.12 82.50 L 90.81 69.36 L 90.50 56.22 L 94.50 59.35 C96.70,61.07 99.09,63.04 99.82,63.74 C100.55,64.43 101.54,65.00 102.03,65.00 C102.51,65.00 103.94,66.01 105.20,67.25 C106.47,68.49 109.41,70.74 111.75,72.26 C114.09,73.78 116.00,75.53 116.00,76.14 C116.00,76.76 112.76,80.35 108.79,84.13 ZM 414.33 108.74 C407.30,113.69 395.68,111.35 392.35,104.32 C391.40,102.33 390.65,98.46 390.67,95.72 C390.71,91.30 391.13,90.36 394.43,87.24 C397.80,84.06 398.72,83.72 404.31,83.61 C409.98,83.50 410.74,83.75 413.80,86.73 C416.47,89.31 417.07,90.61 416.81,93.23 L 416.50 96.50 L 405.69 96.78 C395.07,97.06 394.90,97.11 395.51,99.28 C396.65,103.38 398.31,105.96 400.16,106.55 C401.17,106.87 402.00,107.56 402.00,108.07 C402.00,109.02 408.08,108.94 409.00,107.98 C409.27,107.69 410.81,106.88 412.40,106.18 C416.52,104.37 417.91,106.22 414.33,108.74 ZM 248.00 107.94 C248.00,111.34 257.86,106.67 260.03,102.24 C261.59,99.05 262.02,94.94 260.93,93.50 C260.51,92.95 260.21,92.05 260.26,91.50 C260.40,89.97 254.00,86.00 251.40,86.00 C242.39,86.00 237.55,97.74 243.59,104.93 C245.02,106.62 246.59,107.75 247.09,107.44 C247.59,107.13 248.00,107.36 248.00,107.94 ZM 364.00 101.15 L 364.00 111.00 L 358.50 111.00 L 358.50 83.15 L 361.20 83.22 C363.26,83.28 363.97,83.86 364.20,85.67 L 364.50 88.04 L 368.00 85.66 C371.05,83.59 372.19,83.37 376.90,83.98 C384.45,84.96 385.00,86.03 385.00,99.69 L 385.00 111.00 L 382.50 111.00 C380.01,111.00 380.00,110.97 380.00,101.43 C380.00,96.17 379.52,90.97 378.93,89.88 C377.46,87.12 374.08,86.08 370.51,87.28 C364.52,89.28 364.00,90.38 364.00,101.15 ZM 341.00 109.53 C341.00,110.64 339.69,111.00 335.57,111.00 C330.65,111.00 329.93,110.71 327.97,107.95 C326.28,105.59 325.94,104.11 326.46,101.38 C327.21,97.37 330.63,95.41 339.29,94.04 C345.57,93.05 346.86,91.26 343.44,88.25 C340.44,85.61 338.26,85.45 333.29,87.52 C328.99,89.32 326.76,88.10 329.44,85.42 C330.69,84.16 333.05,83.66 338.32,83.54 C344.79,83.39 345.72,83.62 347.75,85.84 C348.99,87.20 350.00,89.48 350.01,90.91 C350.02,92.33 350.21,97.44 350.44,102.25 C350.85,110.93 350.84,111.00 348.46,111.00 C346.74,111.00 346.23,110.58 346.64,109.50 C347.04,108.46 346.57,108.00 345.11,108.00 C342.64,108.00 342.48,107.19 344.40,104.44 C345.19,103.31 345.58,101.25 345.29,99.72 C344.83,97.34 344.30,97.00 341.04,97.00 C335.63,97.00 331.00,99.57 331.00,102.57 C331.00,106.27 334.59,109.33 338.10,108.63 C340.25,108.20 341.00,108.43 341.00,109.53 ZM 317.25 99.06 L 312.50 110.98 L 308.25 110.99 C304.71,111.00 304.00,110.68 304.00,109.06 C304.00,107.99 303.54,106.84 302.98,106.49 C302.42,106.14 302.19,105.51 302.45,105.08 C302.72,104.65 302.33,103.46 301.58,102.44 C300.83,101.42 300.45,100.00 300.72,99.29 C300.99,98.58 300.69,98.00 300.05,98.00 C299.41,98.00 299.14,97.59 299.45,97.09 C299.76,96.58 299.59,96.02 299.07,95.84 C298.54,95.65 297.91,94.38 297.65,93.00 C297.39,91.62 296.69,89.23 296.09,87.68 L 296.05 87.57 C295.28,85.59 294.94,84.71 295.24,84.32 C295.48,84.00 296.13,84.00 297.32,84.00 L 297.40 84.00 C299.55,84.00 300.25,85.24 304.28,96.16 C308.28,107.04 308.88,108.09 309.91,106.16 C310.55,104.97 310.77,104.00 310.41,104.00 C310.05,104.00 310.26,103.40 310.87,102.66 C311.48,101.92 311.69,101.02 311.32,100.66 C310.96,100.30 311.27,100.00 312.00,100.00 C312.73,100.00 313.05,99.72 312.71,99.37 C312.36,99.03 312.75,97.46 313.56,95.88 C314.37,94.31 315.03,92.79 315.02,92.51 C315.00,92.00 315.06,91.68 315.46,90.25 C317.08,84.37 317.32,84.00 319.61,84.00 C321.11,84.00 322.00,84.58 322.00,85.57 C322.00,86.43 319.86,92.50 317.25,99.06 ZM 278.00 102.90 L 278.00 111.00 L 272.00 111.00 L 272.00 84.00 L 275.00 84.00 C277.33,84.00 278.00,84.44 278.00,86.00 C278.00,88.68 279.19,88.52 281.83,85.48 C283.56,83.49 284.59,83.10 286.76,83.62 C290.10,84.43 290.35,84.62 289.62,85.80 C289.30,86.32 287.29,87.02 285.14,87.36 C279.77,88.22 278.00,92.07 278.00,102.90 ZM 395.72 91.98 C395.21,93.90 395.64,94.00 404.14,94.00 C412.11,94.00 413.06,93.81 412.79,92.25 C412.25,88.99 407.90,86.00 403.70,86.00 C400.74,86.00 396.44,89.22 395.72,91.98 ZM 329.17 91.17 C330.38,91.08 332.22,90.50 335.25,89.43 C339.06,88.10 340.30,88.01 341.49,88.99 C343.72,90.84 342.65,91.61 336.05,92.91 C332.16,93.68 329.20,94.86 327.19,96.46 C328.46,95.44 330.13,94.52 332.25,93.65 C336.68,91.82 337.42,89.43 333.25,90.41 C331.35,90.86 330.07,91.13 329.17,91.17 ZM 345.00 96.11 C345.00,95.10 342.58,94.00 340.38,94.00 C339.18,94.00 339.15,94.26 340.21,95.46 C341.63,97.07 345.00,97.52 345.00,96.11 ZM 324.00 102.91 C324.01,105.52 324.77,107.75 326.22,109.53 C324.76,107.75 324.00,105.52 324.00,102.95 C324.00,102.94 324.00,102.93 324.00,102.91 ZM 325.72 97.91 C325.03,98.77 324.54,99.71 324.27,100.75 C324.53,99.71 325.01,98.77 325.72,97.91 ZM 327.82 90.96 C327.25,90.69 326.92,90.13 326.52,89.25 C326.90,90.11 327.26,90.68 327.82,90.96 Z" fill="rgb(67,69,74)"/>
        <path d="M 88.00 106.52 C88.00,94.31 88.17,93.00 89.75,93.01 C90.71,93.01 96.90,97.05 103.50,101.98 C110.10,106.91 115.84,110.96 116.25,110.97 C116.66,110.99 117.00,110.15 117.00,109.10 C117.00,107.21 128.34,96.43 132.81,94.08 C134.63,93.12 135.44,93.12 136.59,94.08 C137.76,95.05 138.00,97.73 137.78,107.40 L 137.50 119.50 L 112.75 119.77 L 88.00 120.03 L 88.00 106.52 ZM 134.78 106.75 C134.94,100.84 134.81,96.00 134.48,96.00 C132.82,96.00 127.92,99.28 126.99,101.01 C126.41,102.10 125.40,103.00 124.75,103.00 C122.89,103.00 119.00,108.08 119.00,110.49 C119.00,111.69 118.72,112.95 118.37,113.29 C117.56,114.11 112.45,111.48 107.86,107.86 C105.85,106.29 103.84,105.00 103.39,105.00 C102.93,105.00 101.65,103.97 100.53,102.70 C97.71,99.51 92.40,95.93 91.64,96.70 C91.29,97.05 91.00,101.99 91.00,107.69 L 91.00 118.04 L 112.75 117.77 L 134.50 117.50 L 134.78 106.75 ZM 140.77 101.88 L 140.50 83.75 L 132.83 90.13 C128.61,93.63 122.65,98.01 119.59,99.86 C114.12,103.17 113.97,103.20 110.27,101.69 C108.19,100.84 106.62,99.65 106.76,99.05 C106.90,98.44 106.34,97.68 105.51,97.37 C103.43,96.57 103.62,94.38 105.90,92.78 C107.69,91.53 116.42,83.85 128.97,72.50 C142.27,60.47 153.00,52.00 154.92,52.00 C156.99,52.00 157.00,52.23 157.00,86.00 L 157.00 120.00 L 149.02 120.00 L 141.05 120.00 L 140.77 101.88 ZM 155.00 85.50 C155.00,67.32 154.61,53.00 154.12,53.00 C153.63,53.00 152.49,54.12 151.59,55.50 C150.69,56.88 149.40,58.01 148.73,58.02 C148.05,58.03 145.01,60.41 141.98,63.31 C138.94,66.20 135.39,69.31 134.10,70.22 C131.91,71.75 120.95,81.59 111.89,90.16 C109.76,92.18 107.45,94.02 106.76,94.25 C104.95,94.85 111.00,99.93 113.57,99.97 C115.90,100.00 126.58,92.92 135.92,85.14 C139.32,82.32 142.56,80.00 143.13,80.00 C143.69,80.00 144.07,81.46 143.98,83.25 C143.88,85.04 143.84,93.59 143.90,102.25 L 144.00 118.00 L 149.50 118.00 L 155.00 118.00 L 155.00 85.50 ZM 245.50 112.79 C238.07,110.20 233.00,104.06 233.00,97.67 C233.00,86.92 242.13,79.91 254.27,81.35 C260.46,82.08 264.31,84.42 266.91,89.05 C274.45,102.48 260.45,118.02 245.50,112.79 ZM 262.07 107.16 C266.15,103.54 266.39,103.02 266.44,97.84 C266.49,93.58 265.94,91.54 264.00,88.69 C262.62,86.67 260.74,85.01 259.81,85.01 C258.88,85.00 257.91,84.66 257.65,84.25 C256.93,83.08 245.87,83.59 242.29,84.95 C240.53,85.62 238.81,87.03 238.47,88.08 C238.14,89.14 237.52,90.00 237.10,90.00 C236.68,90.00 236.29,90.56 236.23,91.25 C236.17,91.94 235.96,94.64 235.74,97.25 C235.53,99.96 235.78,102.00 236.35,102.00 C236.89,102.00 237.07,102.26 236.75,102.58 C235.91,103.42 238.99,106.92 242.50,109.11 C244.58,110.42 247.37,110.99 251.62,111.00 C257.30,111.00 258.05,110.72 262.07,107.16 ZM 330.38 112.61 C326.21,110.73 324.00,107.35 324.00,102.87 C324.00,97.84 328.07,94.48 336.05,92.91 C342.65,91.61 343.72,90.84 341.49,88.99 C340.30,88.01 339.06,88.10 335.25,89.43 C328.53,91.80 327.65,91.78 326.52,89.25 C325.97,88.01 325.29,87.00 325.01,87.01 C324.73,87.01 322.23,92.75 319.46,99.76 L 314.42 112.50 L 309.63 112.81 C307.00,112.98 304.27,112.64 303.58,112.06 C302.88,111.49 300.37,105.83 298.00,99.51 C295.63,93.18 293.31,88.00 292.85,88.00 C292.38,88.00 292.00,88.43 292.00,88.95 C292.00,89.47 289.87,90.03 287.27,90.20 C281.10,90.59 280.03,92.66 280.01,104.25 L 280.00 113.00 L 275.50 113.00 L 271.00 113.00 L 271.00 97.49 L 271.00 81.98 L 277.82 82.16 C281.57,82.26 285.12,82.04 285.71,81.68 C286.31,81.31 290.18,81.29 294.31,81.64 L 301.83 82.28 L 305.00 91.14 C306.74,96.01 308.52,100.00 308.95,100.00 C309.38,100.00 311.18,95.95 312.95,91.00 L 316.17 82.00 L 321.08 82.00 C324.71,82.00 326.00,82.38 326.00,83.45 C326.00,84.64 326.76,84.56 330.25,82.97 C334.49,81.05 341.28,80.58 345.99,81.89 C347.36,82.27 349.50,84.09 350.74,85.94 C352.77,88.96 353.00,90.49 353.00,101.20 L 353.00 113.11 L 346.75 112.90 C343.31,112.79 338.92,112.99 337.00,113.36 C334.79,113.77 332.35,113.50 330.38,112.61 ZM 278.00 102.90 C278.00,92.07 279.77,88.22 285.14,87.36 C287.29,87.02 289.30,86.32 289.62,85.80 C290.35,84.62 290.10,84.43 286.76,83.62 C284.59,83.10 283.56,83.49 281.83,85.48 C279.19,88.52 278.00,88.68 278.00,86.00 C278.00,84.44 277.33,84.00 275.00,84.00 L 272.00 84.00 L 272.00 97.50 L 272.00 111.00 L 275.00 111.00 L 278.00 111.00 L 278.00 102.90 ZM 317.25 99.06 C319.86,92.50 322.00,86.43 322.00,85.57 C322.00,84.58 321.11,84.00 319.61,84.00 C317.32,84.00 317.08,84.37 315.46,90.25 C315.06,91.68 315.00,92.00 315.02,92.51 C315.03,92.79 314.37,94.31 313.56,95.88 C312.75,97.46 312.36,99.03 312.71,99.37 C313.05,99.72 312.73,100.00 312.00,100.00 C311.27,100.00 310.96,100.30 311.32,100.66 C311.69,101.02 311.48,101.92 310.87,102.66 C310.26,103.40 310.05,104.00 310.41,104.00 C310.77,104.00 310.55,104.97 309.91,106.16 C308.88,108.09 308.28,107.04 304.28,96.16 C300.25,85.24 299.55,84.00 297.40,84.00 C294.63,84.00 294.65,83.96 296.09,87.68 C296.69,89.23 297.39,91.62 297.65,93.00 C297.91,94.38 298.54,95.65 299.07,95.84 C299.59,96.02 299.76,96.58 299.45,97.09 C299.14,97.59 299.41,98.00 300.05,98.00 C300.69,98.00 300.99,98.58 300.72,99.29 C300.45,100.00 300.83,101.42 301.58,102.44 C302.33,103.46 302.72,104.65 302.45,105.08 C302.19,105.51 302.42,106.14 302.98,106.49 C303.54,106.84 304.00,107.99 304.00,109.06 C304.00,110.68 304.71,111.00 308.25,110.99 L 312.50 110.98 L 317.25 99.06 ZM 341.00 109.53 C341.00,108.43 340.25,108.20 338.10,108.63 C334.59,109.33 331.00,106.27 331.00,102.57 C331.00,99.57 335.63,97.00 341.04,97.00 C344.30,97.00 344.83,97.34 345.29,99.72 C345.58,101.25 345.19,103.31 344.40,104.44 C342.48,107.19 342.64,108.00 345.11,108.00 C346.57,108.00 347.04,108.46 346.64,109.50 C346.23,110.58 346.74,111.00 348.46,111.00 C350.84,111.00 350.85,110.93 350.44,102.25 C350.21,97.44 350.02,92.33 350.01,90.91 C350.00,89.48 348.99,87.20 347.75,85.84 C345.72,83.62 344.79,83.39 338.32,83.54 C333.05,83.66 330.69,84.16 329.44,85.42 C326.76,88.10 328.99,89.32 333.29,87.52 C338.26,85.45 340.44,85.61 343.44,88.25 C346.86,91.26 345.57,93.05 339.29,94.04 C330.63,95.41 327.21,97.37 326.46,101.38 C325.94,104.11 326.28,105.59 327.97,107.95 C329.93,110.71 330.65,111.00 335.57,111.00 C339.69,111.00 341.00,110.64 341.00,109.53 ZM 399.00 112.41 C387.71,107.51 384.71,94.57 392.90,86.01 C396.88,81.84 402.16,80.33 408.75,81.47 C415.29,82.61 420.00,88.45 420.00,95.45 L 420.00 99.00 L 409.00 99.00 C396.97,99.00 395.48,99.87 400.63,103.93 C403.78,106.40 407.02,106.56 411.12,104.44 C417.05,101.37 421.37,104.69 417.34,109.21 C413.23,113.83 405.42,115.19 399.00,112.41 ZM 414.33 108.74 C417.91,106.22 416.52,104.37 412.40,106.18 C410.81,106.88 409.27,107.69 409.00,107.98 C408.08,108.94 402.00,109.02 402.00,108.07 C402.00,107.56 401.17,106.87 400.16,106.55 C398.31,105.96 396.65,103.38 395.51,99.28 C394.90,97.11 395.07,97.06 405.69,96.78 L 416.50 96.50 L 416.81 93.23 C417.07,90.61 416.47,89.31 413.80,86.73 C410.74,83.75 409.98,83.50 404.31,83.61 C398.72,83.72 397.80,84.06 394.43,87.24 C391.13,90.36 390.71,91.30 390.67,95.72 C390.65,98.46 391.40,102.33 392.35,104.32 C395.68,111.35 407.30,113.69 414.33,108.74 ZM 184.00 91.50 L 184.00 70.00 L 189.26 70.00 L 194.52 70.00 L 200.81 80.50 C204.27,86.28 207.25,91.00 207.43,91.00 C207.61,91.00 210.54,86.28 213.95,80.50 L 220.16 70.00 L 225.58 70.00 L 231.00 70.00 L 231.00 91.55 L 231.00 113.11 L 226.25 112.80 L 221.50 112.50 L 221.22 99.65 L 220.94 86.80 L 215.06 96.15 C207.43,108.31 206.44,108.40 199.88,97.51 C197.24,93.12 194.60,89.37 194.03,89.18 C193.36,88.95 193.00,93.03 193.00,100.92 L 193.00 113.00 L 188.50 113.00 L 184.00 113.00 L 184.00 91.50 ZM 191.00 95.35 C191.00,79.82 191.02,79.70 192.98,81.48 C194.06,82.46 194.71,83.66 194.42,84.13 C194.12,84.61 194.31,85.00 194.83,85.00 C195.36,85.00 196.07,86.12 196.41,87.50 C196.76,88.88 197.44,90.00 197.94,90.00 C198.44,90.00 199.36,91.57 200.00,93.50 C200.64,95.43 201.57,97.00 202.08,97.00 C202.58,97.00 203.00,97.63 203.00,98.39 C203.00,99.16 203.70,100.06 204.56,100.39 C205.42,100.72 205.85,101.44 205.50,101.99 C205.16,102.55 205.70,102.99 206.69,102.99 C207.78,102.98 209.60,101.09 211.28,98.24 C218.75,85.49 221.98,80.51 222.99,80.17 C223.78,79.91 224.01,84.33 223.80,95.40 L 223.50 111.00 L 226.25 111.00 L 229.00 111.00 L 229.00 92.00 L 229.00 73.00 L 225.15 73.00 C222.00,73.00 220.86,73.58 218.90,76.16 C217.58,77.89 216.61,79.69 216.75,80.16 C216.89,80.62 216.52,81.00 215.94,81.00 C215.36,81.00 215.12,81.39 215.42,81.87 C215.71,82.34 215.07,83.53 214.00,84.50 C212.93,85.47 212.29,86.66 212.58,87.13 C212.88,87.61 212.64,88.00 212.06,88.00 C211.48,88.00 210.99,88.56 210.97,89.25 C210.93,90.60 207.15,95.54 206.65,94.89 C206.48,94.68 203.49,89.66 200.00,83.75 C194.38,74.24 193.34,73.00 190.91,73.00 C189.40,73.00 187.45,72.73 186.58,72.39 C185.17,71.85 185.00,73.92 185.00,91.39 L 185.00 111.00 L 188.00 111.00 L 191.00 111.00 L 191.00 95.35 ZM 356.71 112.38 C356.32,111.99 356.00,104.99 356.00,96.83 L 356.00 82.00 L 361.00 82.00 C364.03,82.00 366.00,82.44 366.00,83.12 C366.00,83.86 366.56,83.78 367.63,82.89 C368.62,82.07 371.76,81.53 375.60,81.52 C380.87,81.50 382.32,81.88 384.22,83.78 C386.36,85.91 386.50,86.84 386.50,99.28 L 386.50 112.50 L 382.28 112.81 L 378.06 113.11 L 377.78 101.31 L 377.50 89.50 L 373.79 89.19 C367.96,88.71 366.60,91.08 366.00,102.77 L 365.50 112.50 L 361.46 112.80 C359.24,112.96 357.11,112.77 356.71,112.38 ZM 364.00 101.15 C364.00,90.38 364.52,89.28 370.51,87.28 C374.08,86.08 377.46,87.12 378.93,89.88 C379.52,90.97 380.00,96.17 380.00,101.43 C380.00,110.97 380.01,111.00 382.50,111.00 L 385.00 111.00 L 385.00 99.69 C385.00,86.03 384.45,84.96 376.90,83.98 C372.19,83.37 371.05,83.59 368.00,85.66 L 364.50 88.04 L 364.20 85.67 C363.97,83.86 363.26,83.28 361.20,83.22 L 358.50 83.15 L 358.50 97.07 L 358.50 111.00 L 361.25 111.00 L 364.00 111.00 L 364.00 101.15 ZM 94.25 87.78 L 88.00 82.63 L 88.00 68.82 C88.00,52.26 87.99,52.27 99.14,60.28 C113.81,70.80 118.00,74.27 117.97,75.87 C117.94,77.95 103.78,93.01 101.91,92.97 C101.13,92.95 97.69,90.62 94.25,87.78 ZM 108.79 84.13 C112.76,80.35 116.00,76.76 116.00,76.14 C116.00,75.53 114.09,73.78 111.75,72.26 C109.41,70.74 106.47,68.49 105.20,67.25 C103.94,66.01 102.51,65.00 102.03,65.00 C101.54,65.00 100.55,64.43 99.82,63.74 C99.09,63.04 96.70,61.07 94.50,59.35 L 90.50 56.22 L 90.81 69.36 L 91.12 82.50 L 94.81 85.80 C96.84,87.61 98.95,89.50 99.50,90.00 C101.09,91.43 101.22,91.35 108.79,84.13 ZM 248.00 107.94 C248.00,107.36 247.59,107.13 247.09,107.44 C246.59,107.75 245.02,106.62 243.59,104.93 C237.55,97.74 242.39,86.00 251.40,86.00 C254.00,86.00 260.40,89.97 260.26,91.50 C260.21,92.05 260.51,92.95 260.93,93.50 C262.02,94.94 261.59,99.05 260.03,102.24 C257.86,106.67 248.00,111.34 248.00,107.94 ZM 395.72 91.98 C396.44,89.22 400.74,86.00 403.70,86.00 C407.90,86.00 412.25,88.99 412.79,92.25 C413.06,93.81 412.11,94.00 404.14,94.00 C395.64,94.00 395.21,93.90 395.72,91.98 Z" fill="rgb(232,233,234)"/>
    </g>
</svg>

