<svg xmlns="http://www.w3.org/2000/svg" width="108" height="93" viewBox="0 0 108 93">
  <g>
    <!-- Background removed -->
    <!-- <path d="M 0.00 0.00 L 108.00 0.00 L 108.00 93.00 L 0.00 93.00 Z" fill="rgb(29,29,29)"/> -->

    <!-- Original first path WITHOUT the background rectangle -->
    <path d="M 75.00 63.04 L 75.00 81.08 L 82.75 80.79 L 90.50 80.50 L 90.50 46.01 C90.50,16.15 90.30,11.49 89.00,11.24 C87.57,10.97 74.03,22.22 48.60,44.81 L 36.99 55.12 L 39.57 58.50 C42.69,62.60 46.74,63.70 50.84,61.58 C52.48,60.74 58.15,56.66 63.44,52.52 C68.73,48.38 73.50,45.00 74.03,45.00 C74.62,45.00 75.00,52.07 75.00,63.04 ZM 21.68 80.35 C22.06,80.73 33.20,80.91 46.43,80.77 L 70.50 80.50 L 70.78 67.25 L 71.06 54.00 L 68.55 54.00 C66.94,54.00 63.64,56.08 59.28,59.84 C51.64,66.42 50.37,67.81 49.86,70.14 C49.59,71.38 46.47,69.51 37.00,62.42 C30.12,57.28 23.71,53.05 22.75,53.03 C21.17,53.00 21.00,54.29 21.00,66.33 C21.00,73.67 21.31,79.97 21.68,80.35 ZM 27.23 47.79 C30.66,50.66 34.20,53.00 35.10,53.00 C36.78,53.00 52.00,37.77 52.00,36.08 C52.00,34.56 49.58,32.53 36.36,22.93 C29.19,17.74 23.23,14.08 22.42,14.39 C21.29,14.83 21.00,17.75 21.00,28.76 L 21.00 42.59 Z"
          fill="rgb(29,29,29)"/>

    <path d="M 89.00 46.00 L 89.00 79.00 L 77.04 79.00 L 76.77 59.44 L 76.50 39.88 L 69.50 45.39 C59.01,53.66 48.25,61.00 46.64,61.00 C45.85,61.00 43.82,59.79 42.14,58.31 L 39.07 55.62 L 42.78 52.28 C44.83,50.44 48.46,47.27 50.86,45.22 C53.26,43.17 56.89,39.92 58.94,38.00 C60.98,36.08 64.79,32.70 67.41,30.50 C70.03,28.30 73.47,25.26 75.05,23.75 C76.64,22.24 78.23,21.00 78.58,21.00 C78.94,21.00 80.98,19.20 83.12,17.00 C85.25,14.80 87.45,13.00 88.00,13.00 C88.65,13.00 89.00,24.64 89.00,46.00 ZM 69.00 54.93 L 69.00 79.00 L 46.25 79.00 L 23.50 79.00 L 23.81 67.50 C23.98,61.18 24.43,56.00 24.81,56.01 C25.19,56.02 27.52,57.58 30.00,59.50 C35.98,64.11 35.90,64.06 40.50,67.45 C42.70,69.07 45.17,71.10 46.00,71.95 C46.83,72.80 48.62,73.50 50.00,73.50 C52.03,73.50 52.51,73.00 52.55,70.84 C52.58,69.12 53.81,67.08 56.05,65.06 C57.95,63.35 60.62,60.89 62.00,59.61 C63.38,58.32 65.51,56.74 66.75,56.10 ZM 42.72 43.75 C38.77,47.74 35.07,51.00 34.49,51.00 C33.90,51.00 31.43,49.20 29.00,47.00 C26.57,44.80 24.34,43.00 24.04,43.00 C23.74,43.00 23.64,37.15 23.81,30.00 C23.97,22.85 24.42,17.00 24.81,17.00 C25.19,17.00 26.75,18.08 28.28,19.39 C29.80,20.70 32.61,22.84 34.52,24.14 C36.43,25.44 37.99,26.84 37.99,27.25 C38.00,27.66 38.69,28.00 39.53,28.00 C40.37,28.00 41.32,28.66 41.62,29.46 C41.93,30.27 43.13,31.22 44.29,31.59 C45.44,31.96 47.17,33.21 48.14,34.38 C49.85,36.46 49.74,36.65 42.72,43.75 Z"
          fill="rgb(67,69,74)"/>

    <path d="M 21.68 80.35 C21.31,79.97 21.00,73.67 21.00,66.33 C21.00,54.29 21.17,53.00 22.75,53.03 C23.71,53.05 30.12,57.28 37.00,62.42 C46.47,69.51 49.59,71.38 49.86,70.14 C50.37,67.81 51.64,66.42 59.28,59.84 C63.64,56.08 66.94,54.00 68.55,54.00 L 71.06 54.00 L 70.78 67.25 L 70.50 80.50 L 46.43 80.77 C33.20,80.91 22.06,80.73 21.68,80.35 ZM 69.00 66.96 L 69.00 54.93 L 66.75 56.10 C65.51,56.74 63.38,58.32 62.00,59.61 C60.62,60.89 57.95,63.35 56.05,65.06 C53.81,67.08 52.58,69.12 52.55,70.84 C52.51,73.00 52.03,73.50 50.00,73.50 C48.62,73.50 46.83,72.80 46.00,71.95 C45.17,71.10 42.70,69.07 40.50,67.45 C35.90,64.06 35.98,64.11 30.00,59.50 C27.52,57.58 25.19,56.02 24.81,56.01 C24.43,56.00 23.98,61.18 23.81,67.50 L 23.50 79.00 L 46.25 79.00 L 69.00 79.00 L 69.00 66.96 ZM 75.00 63.04 C75.00,52.07 74.62,45.00 74.03,45.00 C73.50,45.00 68.73,48.38 63.44,52.52 C58.15,56.66 52.48,60.74 50.84,61.58 C46.74,63.70 42.69,62.60 39.57,58.50 L 36.99 55.12 L 48.60 44.81 C74.03,22.22 87.57,10.97 89.00,11.24 C90.30,11.49 90.50,16.15 90.50,46.01 L 90.50 80.50 L 82.75 80.79 L 75.00 81.08 L 75.00 63.04 ZM 89.00 46.00 C89.00,24.64 88.65,13.00 88.00,13.00 C87.45,13.00 85.25,14.80 83.12,17.00 C80.98,19.20 78.94,21.00 78.58,21.00 C78.23,21.00 76.64,22.24 75.05,23.75 C73.47,25.26 70.03,28.30 67.41,30.50 C64.79,32.70 60.98,36.08 58.94,38.00 C56.89,39.92 53.26,43.17 50.86,45.22 C48.46,47.27 44.83,50.44 42.78,52.28 L 39.07 55.62 L 42.14 58.31 C43.82,59.79 45.85,61.00 46.64,61.00 C48.25,61.00 59.01,53.66 69.50,45.39 L 76.50 39.88 L 76.77 59.44 L 77.04 79.00 L 83.02 79.00 L 89.00 79.00 L 89.00 46.00 ZM 27.23 47.79 L 21.00 42.59 L 21.00 28.76 C21.00,17.75 21.29,14.83 22.42,14.39 C23.23,14.08 29.19,17.74 36.36,22.93 C49.58,32.53 52.00,34.56 52.00,36.08 C52.00,37.77 36.78,53.00 35.10,53.00 C34.20,53.00 30.66,50.66 27.23,47.79 ZM 42.72 43.75 C49.74,36.65 49.85,36.46 48.14,34.38 C47.17,33.21 45.44,31.96 44.29,31.59 C43.13,31.22 41.93,30.27 41.62,29.46 C41.32,28.66 40.37,28.00 39.53,28.00 C38.69,28.00 38.00,27.66 37.99,27.25 C37.99,26.84 36.43,25.44 34.52,24.14 C32.61,22.84 29.80,20.70 28.28,19.39 C26.75,18.08 25.19,17.00 24.81,17.00 C24.42,17.00 23.97,22.85 23.81,30.00 C23.64,37.15 23.74,43.00 24.04,43.00 C24.34,43.00 26.57,44.80 29.00,47.00 C31.43,49.20 33.90,51.00 34.49,51.00 C35.07,51.00 38.77,47.74 42.72,43.75 Z"
          fill="rgb(232,233,235)"/>
  </g>
</svg>
